<svg xmlns="http://www.w3.org/2000/svg" width="40" height="24" viewBox="0 0 40 24">
    <g fill="none" fill-rule="evenodd">
        <path fill="#F1F1F1" d="M3 0h34a3 3 0 0 1 3 3v18a3 3 0 0 1-3 3H3a3 3 0 0 1-3-3V3a3 3 0 0 1 3-3z"/>
        <path fill="#3D3777" d="M13.66 16.335l.064-.3a.601.601 0 0 1-.247-.064.706.706 0 0 1-.212-.17.369.369 0 0 1-.1-.22l-.598-7.594a.665.665 0 0 0-.117-.342.639.639 0 0 0-.255-.21.82.82 0 0 0-.343-.072H7.978l-.078.3c.062 0 .123.021.181.06.06.04.109.087.148.148.039.058.059.119.06.182a.559.559 0 0 1-.008.112.375.375 0 0 1-.03.083l-3.823 7.41a.834.834 0 0 0-.048.128.52.52 0 0 0-.017.12c.002.125.05.227.147.307.096.078.228.12.4.122h2.82l.066-.3a.415.415 0 0 1-.176-.038.38.38 0 0 1-.134-.104.239.239 0 0 1-.054-.143c0-.016 0-.04.004-.074a.274.274 0 0 1 .021-.095l.534-1.067h1.508l.117 1.327c.017.186.08.314.188.387.109.074.276.109.501.107h3.354zm-4.265-5.02l.104 1.457h-.741l.637-1.456z"/>
        <path d="M13.66 16.335l.064-.3a.601.601 0 0 1-.247-.064.706.706 0 0 1-.212-.17.369.369 0 0 1-.1-.22l-.598-7.594a.665.665 0 0 0-.117-.342.639.639 0 0 0-.255-.21.82.82 0 0 0-.343-.072H7.978l-.078.3c.062 0 .123.021.181.06.06.04.109.087.148.148.039.058.059.119.06.182a.559.559 0 0 1-.008.112.375.375 0 0 1-.03.083l-3.823 7.41a.834.834 0 0 0-.048.128.52.52 0 0 0-.017.12c.002.125.05.227.147.307.096.078.228.12.4.122h2.82l.066-.3a.415.415 0 0 1-.176-.038.38.38 0 0 1-.134-.104.239.239 0 0 1-.054-.143c0-.016 0-.04.004-.074a.274.274 0 0 1 .021-.095l.534-1.067h1.508l.117 1.327c.017.186.08.314.188.387.109.074.276.109.501.107h3.354zm-4.265-5.02l.104 1.457h-.741l.637-1.456z"/>
        <path fill="#3D3777" d="M18.206 11.914c.03-.136.1-.24.213-.31.11-.071.277-.106.502-.106h.56c.281.002.517-.05.71-.154a.876.876 0 0 0 .408-.496l.377-1.612h-1.131c-.167 0-.308.024-.42.071a.886.886 0 0 0-.298.204 2.124 2.124 0 0 0-.238.316l-.253.41h-.157c.026-.091.046-.176.059-.252.013-.073.02-.138.02-.19a.429.429 0 0 0-.148-.353c-.102-.085-.264-.128-.49-.128h-2.886l-.065.299a.392.392 0 0 1 .303.184.384.384 0 0 1 .06.206l-.001.112a.81.81 0 0 1-.024.122l-1.274 5.474a1.966 1.966 0 0 0-.04.273c.003.1.042.182.116.249.075.065.175.1.3.102h3.251l.078-.3a.284.284 0 0 1-.169-.058.45.45 0 0 1-.138-.147.391.391 0 0 1-.057-.197c0-.04 0-.076.002-.109 0-.034.005-.067.011-.1l.82-3.51z"/>
        <path d="M18.206 11.914c.03-.136.1-.24.213-.31.11-.071.277-.106.502-.106h.56c.281.002.517-.05.71-.154a.876.876 0 0 0 .408-.496l.377-1.612h-1.131c-.167 0-.308.024-.42.071a.886.886 0 0 0-.298.204 2.124 2.124 0 0 0-.238.316l-.253.41h-.157c.026-.091.046-.176.059-.252.013-.073.02-.138.02-.19a.429.429 0 0 0-.148-.353c-.102-.085-.264-.128-.49-.128h-2.886l-.065.299a.392.392 0 0 1 .303.184.384.384 0 0 1 .06.206l-.001.112a.81.81 0 0 1-.024.122l-1.274 5.474a1.966 1.966 0 0 0-.04.273c.003.1.042.182.116.249.075.065.175.1.3.102h3.251l.078-.3a.284.284 0 0 1-.169-.058.45.45 0 0 1-.138-.147.391.391 0 0 1-.057-.197c0-.04 0-.076.002-.109 0-.034.005-.067.011-.1l.82-3.51z"/>
        <path fill="#3D3777" d="M24.6 14.19c-.274-.003-.46-.07-.562-.204-.102-.137-.121-.327-.063-.577l.715-3.081c.033-.18.083-.334.152-.466a.743.743 0 0 1 .3-.308c.13-.073.305-.11.524-.11h1.339c.219 0 .388-.033.511-.096a.642.642 0 0 0 .277-.264c.063-.115.111-.251.148-.407.03-.118.065-.254.104-.414.037-.158.071-.319.106-.48a8.01 8.01 0 0 0 .076-.42h-4.42c-.291 0-.577.05-.854.148-.278.1-.538.253-.78.457-.241.204-.454.464-.635.778a4.032 4.032 0 0 0-.423 1.114l-.715 3.133c-.093.39-.156.756-.189 1.097-.034.34-.021.648.035.923.056.275.173.51.349.706.175.197.425.35.75.455.325.106.736.158 1.24.16h2.925c.318 0 .567-.034.752-.103a.85.85 0 0 0 .411-.29 1.14 1.14 0 0 0 .189-.451l.377-1.639h-.3a.358.358 0 0 1-.144.18.998.998 0 0 1-.518.158h-1.678z"/>
        <path d="M24.6 14.19c-.274-.003-.46-.07-.562-.204-.102-.137-.121-.327-.063-.577l.715-3.081c.033-.18.083-.334.152-.466a.743.743 0 0 1 .3-.308c.13-.073.305-.11.524-.11h1.339c.219 0 .388-.033.511-.096a.642.642 0 0 0 .277-.264c.063-.115.111-.251.148-.407.03-.118.065-.254.104-.414.037-.158.071-.319.106-.48a8.01 8.01 0 0 0 .076-.42h-4.42c-.291 0-.577.05-.854.148-.278.1-.538.253-.78.457-.241.204-.454.464-.635.778a4.032 4.032 0 0 0-.423 1.114l-.715 3.133c-.093.39-.156.756-.189 1.097-.034.34-.021.648.035.923.056.275.173.51.349.706.175.197.425.35.75.455.325.106.736.158 1.24.16h2.925c.318 0 .567-.034.752-.103a.85.85 0 0 0 .411-.29 1.14 1.14 0 0 0 .189-.451l.377-1.639h-.3a.358.358 0 0 1-.144.18.998.998 0 0 1-.518.158h-1.678z"/>
        <path fill="#3D3777" d="M31.018 13.734c.034-.166.08-.294.136-.381a.432.432 0 0 1 .186-.176.56.56 0 0 1 .224-.04h.299l-.273 1.182a.47.47 0 0 1-.122.243.326.326 0 0 1-.23.095h-.09c-.091 0-.157-.017-.198-.056-.043-.037-.063-.102-.063-.19a2.14 2.14 0 0 1 .026-.221l.105-.456zm3.354-4.42h-4.434l-.273 1.105a.93.93 0 0 0-.04.26c0 .156.042.27.136.344.09.074.245.111.463.111h1.73c.123-.002.21.028.26.087.05.06.058.162.026.303a.384.384 0 0 1-.152.238.486.486 0 0 1-.277.074h-1.716a2.253 2.253 0 0 0-1.034.215c-.3.147-.555.388-.767.723-.213.336-.384.785-.514 1.35l-.054.321c-.017.11-.033.219-.043.32-.013.105-.02.194-.02.27.002.366.059.65.17.851.11.204.266.345.467.425.202.08.44.117.715.115h.533c.258 0 .475-.013.648-.044.176-.03.323-.08.445-.151a1.2 1.2 0 0 0 .327-.288c.095-.122.195-.271.297-.453h.156l-.04.169a.714.714 0 0 0-.004.331.41.41 0 0 0 .182.247c.096.063.236.095.42.098h2.94l.064-.3a.72.72 0 0 1-.173-.021.35.35 0 0 1-.16-.091.26.26 0 0 1-.07-.187c0-.05.004-.093.01-.132.007-.04.016-.09.03-.153l1-4.317a2.332 2.332 0 0 0 .057-.414 2.1 2.1 0 0 0 .008-.184 1.269 1.269 0 0 0-.173-.67 1.069 1.069 0 0 0-.464-.411 1.564 1.564 0 0 0-.676-.141z"/>
        <path d="M31.018 13.734c.034-.166.08-.294.136-.381a.432.432 0 0 1 .186-.176.56.56 0 0 1 .224-.04h.299l-.273 1.182a.47.47 0 0 1-.122.243.326.326 0 0 1-.23.095h-.09c-.091 0-.157-.017-.198-.056-.043-.037-.063-.102-.063-.19a2.14 2.14 0 0 1 .026-.221l.105-.456zm3.354-4.42h-4.434l-.273 1.105a.93.93 0 0 0-.04.26c0 .156.042.27.136.344.09.074.245.111.463.111h1.73c.123-.002.21.028.26.087.05.06.058.162.026.303a.384.384 0 0 1-.152.238.486.486 0 0 1-.277.074h-1.716a2.253 2.253 0 0 0-1.034.215c-.3.147-.555.388-.767.723-.213.336-.384.785-.514 1.35l-.054.321c-.017.11-.033.219-.043.32-.013.105-.02.194-.02.27.002.366.059.65.17.851.11.204.266.345.467.425.202.08.44.117.715.115h.533c.258 0 .475-.013.648-.044.176-.03.323-.08.445-.151a1.2 1.2 0 0 0 .327-.288c.095-.122.195-.271.297-.453h.156l-.04.169a.714.714 0 0 0-.004.331.41.41 0 0 0 .182.247c.096.063.236.095.42.098h2.94l.064-.3a.72.72 0 0 1-.173-.021.35.35 0 0 1-.16-.091.26.26 0 0 1-.07-.187c0-.05.004-.093.01-.132.007-.04.016-.09.03-.153l1-4.317a2.332 2.332 0 0 0 .057-.414 2.1 2.1 0 0 0 .008-.184 1.269 1.269 0 0 0-.173-.67 1.069 1.069 0 0 0-.464-.411 1.564 1.564 0 0 0-.676-.141z"/>
        <path fill="#3D3777" d="M13.66 16.335l.064-.3a.601.601 0 0 1-.247-.064.706.706 0 0 1-.212-.17.369.369 0 0 1-.1-.22l-.598-7.594a.665.665 0 0 0-.117-.342.639.639 0 0 0-.255-.21.82.82 0 0 0-.343-.072H7.978l-.078.3c.062 0 .123.021.181.06.06.04.109.087.148.148.039.058.059.119.06.182a.559.559 0 0 1-.008.112.375.375 0 0 1-.03.083l-3.823 7.41a.834.834 0 0 0-.048.128.52.52 0 0 0-.017.12c.002.125.05.227.147.307.096.078.228.12.4.122h2.82l.066-.3a.415.415 0 0 1-.176-.038.38.38 0 0 1-.134-.104.239.239 0 0 1-.054-.143c0-.016 0-.04.004-.074a.274.274 0 0 1 .021-.095l.534-1.067h1.508l.117 1.327c.017.186.08.314.188.387.109.074.276.109.501.107h3.354zm-4.265-5.02l.104 1.457h-.741l.637-1.456z"/>
        <path fill="#FFFFFE" fill-rule="nonzero" d="M7.796 15.748c.183 0 .32.17.28.349l-.064.299a.288.288 0 0 1-.281.226H4.906a.906.906 0 0 1-.578-.187.677.677 0 0 1-.227-.716c.02-.072.041-.128.071-.192l3.821-7.408a.155.155 0 0 0 .01-.057c-.001-.009-.004-.018-.016-.036a.215.215 0 0 0-.065-.064c-.21-.012-.348-.19-.3-.372l.077-.3a.288.288 0 0 1 .279-.214h3.874c.163 0 .316.032.462.097.15.069.276.173.37.304a.95.95 0 0 1 .17.488l.598 7.592c.001.017.008.031.033.059a.41.41 0 0 0 .118.096c.05.024.092.035.13.036.18.005.31.173.272.349l-.065.299a.288.288 0 0 1-.28.226h-3.352c-.28.003-.5-.044-.665-.156-.188-.127-.289-.334-.314-.6l-.094-1.064H8.168l-.449.898c.04.044.058.048.077.048zm5.256.246a.656.656 0 0 1-.173-.39L12.28 8.01a.382.382 0 0 0-.065-.197.35.35 0 0 0-.14-.116.533.533 0 0 0-.224-.046H8.425a.712.712 0 0 1 .152.402.668.668 0 0 1-.071.327L4.688 15.78a.54.54 0 0 0-.037.12c0 .043.01.064.041.09.042.033.112.055.217.056h2.333a.537.537 0 0 1-.093-.398.562.562 0 0 1 .051-.197l.533-1.066a.288.288 0 0 1 .258-.16h1.508c.149 0 .273.115.286.263l.117 1.325c.01.107.034.156.064.177.05.034.163.058.339.056H13.1a.884.884 0 0 1-.048-.053zm-3.37-4.699l.104 1.457a.288.288 0 0 1-.287.308h-.741a.288.288 0 0 1-.264-.403l.637-1.456c.12-.276.53-.205.55.094z"/>
        <path fill="#3D3777" d="M18.206 11.914c.03-.136.1-.24.213-.31.11-.071.277-.106.502-.106h.56c.281.002.517-.05.71-.154a.876.876 0 0 0 .408-.496l.377-1.612h-1.131c-.167 0-.308.024-.42.071a.886.886 0 0 0-.298.204 2.124 2.124 0 0 0-.238.316l-.253.41h-.157c.026-.091.046-.176.059-.252.013-.073.02-.138.02-.19a.429.429 0 0 0-.148-.353c-.102-.085-.264-.128-.49-.128h-2.886l-.065.299a.392.392 0 0 1 .303.184.384.384 0 0 1 .06.206l-.001.112a.81.81 0 0 1-.024.122l-1.274 5.474a1.966 1.966 0 0 0-.04.273c.003.1.042.182.116.249.075.065.175.1.3.102h3.251l.078-.3a.284.284 0 0 1-.169-.058.45.45 0 0 1-.138-.147.391.391 0 0 1-.057-.197c0-.04 0-.076.002-.109 0-.034.005-.067.011-.1l.82-3.51z"/>
        <path fill="#FFFFFE" fill-rule="nonzero" d="M18.921 9.31a1.17 1.17 0 0 1 .391-.268c.151-.064.33-.094.533-.094h1.13c.186 0 .323.173.28.353l-.376 1.612a1.163 1.163 0 0 1-.55.684c-.24.13-.525.191-.849.189h-.559c-.176 0-.29.024-.352.063-.043.027-.068.063-.082.127l-.818 3.504a.232.232 0 0 0-.005.044 1.894 1.894 0 0 0-.002.1c0 .025.005.041.014.056a.167.167 0 0 0 .05.056c.201.013.338.19.29.372l-.077.3a.288.288 0 0 1-.279.214h-3.255a.747.747 0 0 1-.49-.176.624.624 0 0 1-.209-.462 2.226 2.226 0 0 1 .047-.338l1.274-5.474a.584.584 0 0 0 .017-.083l.001-.035v-.043a.105.105 0 0 0-.016-.06.107.107 0 0 0-.039-.04c-.016-.009-.022-.01-.021-.01a.288.288 0 0 1-.281-.35l.065-.298a.288.288 0 0 1 .28-.227h2.887c.285 0 .511.06.676.196.084.07.146.156.188.251.044-.057.09-.111.137-.163zm-.659 2.053c.165-.107.382-.153.66-.153h.56c.235.002.424-.039.572-.118a.585.585 0 0 0 .269-.326l.29-1.243h-.768a.81.81 0 0 0-.31.05.59.59 0 0 0-.197.133c-.07.076-.139.168-.204.272-.073.12-.157.255-.254.41a.288.288 0 0 1-.244.137h-.157a.288.288 0 0 1-.276-.367c.023-.08.04-.155.052-.222a.887.887 0 0 0 .015-.145c0-.068-.014-.103-.044-.128-.042-.035-.143-.062-.306-.062h-2.433a.676.676 0 0 1 .133.46c0 .026 0 .05-.002.071a1.108 1.108 0 0 1-.032.176l-1.272 5.465c-.01.043-.018.087-.024.136l-.009.068c0 .02.005.028.015.037.023.02.058.032.114.033h2.82a.685.685 0 0 1-.144-.414c0-.06.001-.087.003-.118 0-.05.006-.096.018-.156l.819-3.509a.746.746 0 0 1 .336-.487z"/>
        <path fill="#3D3777" d="M24.6 14.19c-.274-.003-.46-.07-.562-.204-.102-.137-.121-.327-.063-.577l.715-3.081c.033-.18.083-.334.152-.466a.743.743 0 0 1 .3-.308c.13-.073.305-.11.524-.11h1.339c.219 0 .388-.033.511-.096a.642.642 0 0 0 .277-.264c.063-.115.111-.251.148-.407.03-.118.065-.254.104-.414.037-.158.071-.319.106-.48a8.01 8.01 0 0 0 .076-.42h-4.42c-.291 0-.577.05-.854.148-.278.1-.538.253-.78.457-.241.204-.454.464-.635.778a4.032 4.032 0 0 0-.423 1.114l-.715 3.133c-.093.39-.156.756-.189 1.097-.034.34-.021.648.035.923.056.275.173.51.349.706.175.197.425.35.75.455.325.106.736.158 1.24.16h2.925c.318 0 .567-.034.752-.103a.85.85 0 0 0 .411-.29 1.14 1.14 0 0 0 .189-.451l.377-1.639h-.3a.358.358 0 0 1-.144.18.998.998 0 0 1-.518.158h-1.678z"/>
        <path fill="#FFFFFE" fill-rule="nonzero" d="M26.277 13.902a.706.706 0 0 0 .356-.109c.023-.015.032-.026.035-.035a.288.288 0 0 1 .272-.194h.299c.185 0 .322.172.28.352l-.375 1.63a1.425 1.425 0 0 1-.238.563 1.13 1.13 0 0 1-.543.39c-.222.084-.504.123-.853.123h-2.927c-.534-.002-.973-.058-1.328-.174-.37-.121-.663-.3-.875-.537a1.776 1.776 0 0 1-.416-.84 3.34 3.34 0 0 1-.039-1.009c.034-.355.1-.734.195-1.133l.715-3.135c.106-.454.256-.852.454-1.192.197-.342.43-.627.699-.854.27-.227.56-.397.87-.509a2.85 2.85 0 0 1 .948-.163h4.42c.176 0 .31.155.286.329a8.218 8.218 0 0 1-.08.44c-.054.252-.077.356-.108.486-.034.143-.068.275-.103.412-.044.185-.1.343-.176.481a.929.929 0 0 1-.398.38c-.17.087-.383.127-.642.127h-1.34c-.173 0-.3.027-.382.073a.457.457 0 0 0-.186.192c-.055.104-.096.23-.124.383l-.718 3.096c-.04.175-.03.28.013.337.038.05.14.088.333.09h1.676zm.553.44a1.26 1.26 0 0 1-.553.135h-1.678c-.356-.003-.626-.1-.791-.32-.16-.213-.19-.487-.113-.813l.714-3.075c.037-.205.096-.384.178-.54.095-.181.234-.324.412-.425.179-.101.402-.148.667-.148h1.339c.175 0 .301-.024.38-.064a.353.353 0 0 0 .156-.146c.048-.087.087-.197.121-.342.037-.14.07-.269.103-.406a28.304 28.304 0 0 0 .12-.547h-4.079c-.256 0-.51.044-.756.13a2.272 2.272 0 0 0-.692.407 2.65 2.65 0 0 0-.572.702 3.747 3.747 0 0 0-.39 1.034l-.716 3.136c-.09.376-.151.73-.183 1.059-.03.308-.02.587.03.836.047.224.14.413.283.573.14.157.345.282.624.373.29.095.673.144 1.15.146h2.926c.286 0 .503-.03.653-.087a.568.568 0 0 0 .277-.188.87.87 0 0 0 .141-.347l.25-1.082z"/>
        <path fill="#3D3777" d="M31.018 13.734c.034-.166.08-.294.136-.381a.432.432 0 0 1 .186-.176.56.56 0 0 1 .224-.04h.299l-.273 1.182a.47.47 0 0 1-.122.243.326.326 0 0 1-.23.095h-.09c-.091 0-.157-.017-.198-.056-.043-.037-.063-.102-.063-.19a2.14 2.14 0 0 1 .026-.221l.105-.456zm3.354-4.42h-4.434l-.273 1.105a.93.93 0 0 0-.04.26c0 .156.042.27.136.344.09.074.245.111.463.111h1.73c.123-.002.21.028.26.087.05.06.058.162.026.303a.384.384 0 0 1-.152.238.486.486 0 0 1-.277.074h-1.716a2.253 2.253 0 0 0-1.034.215c-.3.147-.555.388-.767.723-.213.336-.384.785-.514 1.35l-.054.321c-.017.11-.033.219-.043.32-.013.105-.02.194-.02.27.002.366.059.65.17.851.11.204.266.345.467.425.202.08.44.117.715.115h.533c.258 0 .475-.013.648-.044.176-.03.323-.08.445-.151a1.2 1.2 0 0 0 .327-.288c.095-.122.195-.271.297-.453h.156l-.04.169a.714.714 0 0 0-.004.331.41.41 0 0 0 .182.247c.096.063.236.095.42.098h2.94l.064-.3a.72.72 0 0 1-.173-.021.35.35 0 0 1-.16-.091.26.26 0 0 1-.07-.187c0-.05.004-.093.01-.132.007-.04.016-.09.03-.153l1-4.317a2.332 2.332 0 0 0 .057-.414 2.1 2.1 0 0 0 .008-.184 1.269 1.269 0 0 0-.173-.67 1.069 1.069 0 0 0-.464-.411 1.564 1.564 0 0 0-.676-.141z"/>
        <path fill="#FFFFFE" fill-rule="nonzero" d="M31.456 13.44c-.013.006-.033.026-.06.07a.899.899 0 0 0-.097.283l-.001.005-.102.447-.014.094-.002.015a.566.566 0 0 0-.002.016h.054c.018 0 .025-.004.03-.008a.2.2 0 0 0 .047-.107l.191-.827a.257.257 0 0 0-.044.013zm-.344.928a.058.058 0 0 0-.002 0h.002zm.032.02h-.001zM30.91 13.2a.719.719 0 0 1 .325-.29.835.835 0 0 1 .329-.061h.299c.185 0 .322.172.28.352l-.271 1.174a.76.76 0 0 1-.2.39.618.618 0 0 1-.433.18h-.091a.546.546 0 0 1-.39-.13c-.114-.1-.158-.24-.158-.405a2.372 2.372 0 0 1 .03-.268l.003-.017.104-.452c.041-.198.098-.357.173-.473zm-1.25-3.955a.288.288 0 0 1 .278-.219h4.434c.293 0 .561.056.799.169.247.116.443.29.585.52.143.23.214.505.217.82a3.91 3.91 0 0 1-.033.448 2.48 2.48 0 0 1-.04.216l-1 4.31c-.01.051-.018.095-.025.143a.501.501 0 0 0-.007.077.38.38 0 0 0 .115.019c.184 0 .32.17.281.349l-.065.299a.288.288 0 0 1-.28.226h-2.943c-.234-.002-.427-.047-.575-.145a.708.708 0 0 1-.259-.295c-.106.12-.224.22-.355.296-.153.09-.333.152-.541.188a4.117 4.117 0 0 1-.698.047h-.53a2.173 2.173 0 0 1-.824-.135 1.189 1.189 0 0 1-.614-.554c-.137-.249-.202-.577-.205-.99 0-.088.008-.188.022-.298.01-.1.025-.21.045-.34l.054-.32c.14-.61.322-1.088.555-1.456.239-.378.533-.655.883-.827.34-.169.73-.25 1.16-.245h1.717c.057 0 .094-.01.116-.024.011-.008.023-.026.032-.065a.598.598 0 0 0 .008-.037h-1.743c-.278 0-.492-.051-.641-.173-.17-.134-.248-.334-.244-.57a1.188 1.188 0 0 1 .05-.34l.27-1.094zm5.202 6.485a.152.152 0 0 0-.006-.008l.006.008zm-.57.006c0-.062.005-.121.015-.177.008-.054.018-.107.032-.173l1.002-4.32c.009-.037.017-.087.028-.158a3.511 3.511 0 0 0 .029-.37.987.987 0 0 0-.13-.52.782.782 0 0 0-.343-.303 1.279 1.279 0 0 0-.553-.114h-4.208l-.22.887-.006.022a.66.66 0 0 0-.024.173c-.001.074.01.103.028.117.03.024.124.046.282.046h1.725c.2-.003.37.054.487.192.119.144.135.332.083.553a.668.668 0 0 1-.27.41.768.768 0 0 1-.438.123h-1.72a1.968 1.968 0 0 0-.903.185c-.25.123-.466.327-.651.619-.193.305-.352.722-.475 1.253-.007.042-.04.245-.052.309a6.098 6.098 0 0 0-.042.311c-.012.094-.017.171-.017.232.002.323.05.561.134.716.079.145.183.24.321.295.162.064.363.096.61.094h.532c.252 0 .45-.013.6-.04.144-.024.258-.063.347-.115a.91.91 0 0 0 .247-.218c.09-.114.18-.253.272-.416a.288.288 0 0 1 .25-.147h.157c.184 0 .321.172.28.352l-.04.17a.426.426 0 0 0-.005.195c.008.031.025.054.061.078.043.028.132.048.263.05h2.401a.582.582 0 0 1-.089-.31z"/>
    </g>
</svg>
