<svg xmlns="http://www.w3.org/2000/svg" width="40" height="24" viewBox="0 0 40 24">
    <g fill="none" fill-rule="evenodd">
        <rect width="40" height="24" fill="#E5E5E5" rx="2"/>
        <path fill="#CCC" fill-rule="nonzero" d="M12.672 10.276c-.67-.696-1.605-1.125-2.553-1.125a3.388 3.388 0 0 0-3.413 3.4c0 1.883 1.517 3.4 3.413 3.4.936 0 1.87-.405 2.553-1.062l.734.796c-.885.86-2.111 1.403-3.35 1.403-2.566 0-4.576-1.997-4.576-4.525 0-2.515 2.035-4.487 4.627-4.487 1.226 0 2.44.493 3.286 1.327l-.72.873zM20.232 17h-1.164v-.935c-.505.67-1.327.986-2.338.986-1.416 0-2.313-.885-2.313-2.048 0-1.188.923-1.947 2.515-1.96h2.124v-.315c0-.936-.582-1.48-1.707-1.48-.695 0-1.377.254-2.06.721l-.493-.809c.885-.568 1.593-.884 2.793-.884 1.682 0 2.617.872 2.63 2.325L20.23 17zm-3.262-.923c1.1 0 1.934-.581 2.086-1.453v-.67h-1.96c-1.049 0-1.567.303-1.567.998 0 .683.556 1.125 1.441 1.125zm6.535-4.323c.442-.96 1.264-1.466 2.376-1.478v1.137c-1.39-.05-2.262.81-2.376 2.06V17h-1.176v-6.687h1.176v1.441zm8.709-4.133h1.175V17h-1.175v-1.327c-.493.885-1.365 1.39-2.503 1.39-1.908 0-3.21-1.403-3.21-3.425 0-1.997 1.314-3.375 3.198-3.375 1.15 0 2.022.493 2.515 1.378V7.62zm-2.263 8.431c1.328 0 2.263-.986 2.263-2.376 0-1.403-.935-2.39-2.263-2.39-1.327 0-2.262 1-2.262 2.39 0 1.39.935 2.376 2.262 2.376z"/>
    </g>
</svg>
