<svg xmlns="http://www.w3.org/2000/svg" width="40" height="24" viewBox="0 0 40 24">
    <g fill="none" fill-rule="evenodd">
        <path fill="#F1F1F1" d="M3 0h34a3 3 0 0 1 3 3v18a3 3 0 0 1-3 3H3a3 3 0 0 1-3-3V3a3 3 0 0 1 3-3z"/>
        <g fill-rule="nonzero">
            <path fill="#FF5F00" d="M17.025 6.337h6.019v10.7h-6.019z"/>
            <path fill="#EB001B" d="M17.174 11.688A6.704 6.704 0 0 1 19.7 6.43a6.561 6.561 0 0 0-8.945.72 6.742 6.742 0 0 0 0 9.074 6.561 6.561 0 0 0 8.945.721 6.704 6.704 0 0 1-2.526-5.257z"/>
            <path fill="#F79E1B" d="M30.4 11.688a6.694 6.694 0 0 1-3.723 6.015 6.553 6.553 0 0 1-6.977-.758 6.714 6.714 0 0 0 2.527-5.258c0-2.051-.932-3.99-2.527-5.257a6.553 6.553 0 0 1 6.977-.758 6.694 6.694 0 0 1 3.723 6.015v.001zM29.969 16.196v-.41h.155V15.7h-.393v.085h.169v.411h.069zm.762 0V15.7h-.119l-.138.355-.139-.355h-.105v.496h.085v-.372l.13.323h.088l.129-.323v.376l.07-.004z"/>
        </g>
    </g>
</svg>
