<?xml version="1.0" encoding="UTF-8"?>
<svg version="1.1" xmlns="http://www.w3.org/2000/svg"
     xmlns:xlink="http://www.w3.org/1999/xlink">
  <defs>

    <symbol id="checked"  viewBox="0 0 12 8">
        <path  d="M9.617.415L4.393 5.736 2.06 3.394a1.206 1.206 0 0 0-1.707-.002A1.206 1.206 0 0 0 .354 5.1l3.471 3.462a1 1 0 0 0 1.402.01l6.344-6.151a1.413 1.413 0 0 0 .028-2.001A1.386 1.386 0 0 0 9.617.415z"/>
    </symbol>

    <symbol id='tracker' viewBox='0 0 24 24'>
      <path
        d="M12 9.083A2.92 2.92 0 0 0 9.083 12 2.92 2.92 0 0 0 12 14.917 2.92 2.92 0 0 0 14.917 12 2.92 2.92 0 0 0 12 9.083zm9.167 2.084a.834.834 0 0 1 0 1.666H19.45a7.51 7.51 0 0 1-6.618 6.618v1.716a.834.834 0 0 1-1.666 0V19.45a7.51 7.51 0 0 1-6.618-6.618H2.833a.834.834 0 0 1 0-1.666H4.55a7.51 7.51 0 0 1 6.618-6.618V2.833a.834.834 0 0 1 1.666 0V4.55a7.51 7.51 0 0 1 6.618 6.618h1.716zM12 13.25c-.69 0-1.25-.56-1.25-1.25s.56-1.25 1.25-1.25 1.25.56 1.25 1.25-.56 1.25-1.25 1.25zm0 4.583A5.84 5.84 0 0 0 17.833 12 5.84 5.84 0 0 0 12 6.167 5.84 5.84 0 0 0 6.167 12 5.84 5.84 0 0 0 12 17.833z"/>
    </symbol>

    <symbol id='arrow-down' viewBox='0 0 24 24'>
      <path
        d="M12 16.5c-.269 0-.538-.102-.743-.307l-6.45-6.45a1.05 1.05 0 1 1 1.486-1.485L12 13.965l5.707-5.707a1.05 1.05 0 0 1 1.485 1.485l-6.45 6.45A1.047 1.047 0 0 1 12 16.5z"/>
    </symbol>

    <symbol id='arrow-right' viewBox='0 0 24 24'>
      <path
        d="M16.74 12.74l-6.447 6.447a1.05 1.05 0 1 1-1.486-1.485l5.706-5.705-5.705-5.704a1.05 1.05 0 0 1 1.485-1.485l6.447 6.447a1.046 1.046 0 0 1 0 1.485z"/>
    </symbol>

    <symbol id='arrow-left' viewBox='0 0 24 24'>
      <path
        d="M7.5 11.997c0-.268.103-.537.307-.742l6.448-6.447a1.05 1.05 0 1 1 1.485 1.485l-5.705 5.704 5.705 5.705a1.05 1.05 0 0 1-1.485 1.485L7.807 12.74a1.048 1.048 0 0 1-.307-.743z"/>
    </symbol>

    <symbol id='check' viewBox='0 0 24 24'>
      <path
        d="M14.977 9.117a1.08 1.08 0 0 1 1.545.005 1.1 1.1 0 0 1-.024 1.556l-4.782 4.637a1 1 0 0 1-1.402-.01l-2.548-2.54-.001-.002a.94.94 0 1 1 1.329-1.327l1.816 1.824 4.067-4.143zM12 2c5.523 0 10 4.477 10 10s-4.477 10-10 10S2 17.523 2 12 6.477 2 12 2zm0 18.19A8.19 8.19 0 0 0 20.19 12 8.2 8.2 0 0 0 12 3.81a8.19 8.19 0 0 0 0 16.38z"/>
    </symbol>

    <symbol id='warning' viewBox='0 0 24 24'>
      <path
        d="M12 15.848c.563 0 1.028.464 1.003 1.052.025.535-.465 1.003-1.003 1.003-.56 0-1.028-.468-1.028-1.027 0-.56.469-1.028 1.028-1.028zm9.513 3.642a3.54 3.54 0 0 1-3.091 1.793H5.562a3.518 3.518 0 0 1-3.072-1.764 3.538 3.538 0 0 1-.012-3.572L8.924 4.784A3.51 3.51 0 0 1 12.004 3c1.29 0 2.442.666 3.08 1.788l6.438 11.15a3.51 3.51 0 0 1-.009 3.552zm-1.398-.805a1.92 1.92 0 0 0 .013-1.937L13.685 5.59a1.916 1.916 0 0 0-1.681-.978c-.707 0-1.332.361-1.682.974L3.876 16.744a1.945 1.945 0 0 0 .004 1.961c.35.605.978.962 1.677.962h12.86c.708 0 1.34-.366 1.698-.982zm-8.37-10.053c.49-.115.978.12 1.188.58.07.165.095.33.095.514-.025.514-.07 1.028-.095 1.542-.045.793-.095 1.587-.14 2.38-.024.26-.024.494-.024.749a.769.769 0 0 1-.77.748.753.753 0 0 1-.768-.724l-.21-3.688c-.024-.324-.045-.653-.07-.978 0-.539.305-.983.794-1.123z"/>
    </symbol>

    <symbol id='eye' viewBox='0 0 24 24'>
      <path
        d="M12 6c-3.821 0-7.286 2.09-9.844 5.486a.792.792 0 0 0 0 .945c2.558 3.4 6.023 5.49 9.844 5.49 3.821 0 7.286-2.09 9.844-5.485a.792.792 0 0 0 0-.946C19.286 8.09 15.82 6 12 6zm.274 10.159a4.21 4.21 0 0 1-4.472-4.472 4.216 4.216 0 0 1 3.924-3.924 4.21 4.21 0 0 1 4.472 4.472 4.23 4.23 0 0 1-3.924 3.924zm-.127-1.94a2.261 2.261 0 0 1-2.405-2.405 2.275 2.275 0 0 1 2.115-2.116 2.261 2.261 0 0 1 2.405 2.406 2.275 2.275 0 0 1-2.115 2.115z"/>
    </symbol>

    <symbol id='thick' viewBox='0 0 24 24'>
      <path
        d="M8.727 15.84l-3.58-3.579a1.012 1.012 0 0 0-1.432 1.432l4.305 4.304a1 1 0 0 0 1.414 0l10.85-10.85a1.012 1.012 0 0 0-1.432-1.432L8.727 15.842z"/>
    </symbol>

    <symbol id='cross' viewBox='0 0 24 24'>
      <path
        d="M18.266 7.11l-4.875 4.874 4.875 4.875a.994.994 0 0 1-1.406 1.406l-4.876-4.874-4.875 4.875a.994.994 0 0 1-1.406-1.406l4.875-4.876L5.703 7.11A.994.994 0 0 1 7.11 5.703l4.875 4.875 4.875-4.875a.994.994 0 0 1 1.406 1.406z"/>
    </symbol>

    <symbol id='cross-circle' viewBox='0 0 24 24'>
      <path
        d="M12 2c5.523 0 10 4.477 10 10s-4.477 10-10 10S2 17.523 2 12 6.477 2 12 2zm0 18.19A8.19 8.19 0 0 0 20.19 12 8.2 8.2 0 0 0 12 3.81a8.19 8.19 0 0 0 0 16.38zm2.615-11.964a.82.82 0 1 1 1.16 1.159L13.158 12l2.615 2.615a.82.82 0 0 1-1.159 1.16L12 13.158l-2.615 2.615a.82.82 0 0 1-1.16-1.159L10.842 12 8.226 9.385a.82.82 0 1 1 1.159-1.16L12 10.842l2.615-2.615z"/>
    </symbol>

    <symbol id='menu' viewBox='0 0 24 24'>
      <path
        d="M4 7h16v1.792H4V7zm0 4.458h16v1.75H4v-1.75zm0 4.417h16v1.792H4v-1.792z"/>
    </symbol>

    <symbol id='transaction' viewBox='0 0 24 24'>
      <path
        d="M22 6.125v4.531a.781.781 0 1 1-1.563 0V6.125c0-.862-.7-1.563-1.562-1.563H5.125c-.862 0-1.563.701-1.563 1.563v4.531a.781.781 0 1 1-1.562 0V6.125A3.128 3.128 0 0 1 5.125 3h13.75A3.128 3.128 0 0 1 22 6.125zm-.781 7.656a.781.781 0 0 0-.782.781c0 .862-.7 1.563-1.562 1.563h-7.773a.781.781 0 1 0 0 1.563h7.773A3.128 3.128 0 0 0 22 14.563a.781.781 0 0 0-.781-.782zm-9.02-.795a.781.781 0 1 0 .145 1.556c.991-.092 1.906-.577 2.577-1.366a4.377 4.377 0 0 0 1.024-2.837c0-2.326-1.77-4.219-3.945-4.219S8.055 8.013 8.055 10.34c0 .175.01.352.03.525a.781.781 0 0 0 1.552-.18 3.004 3.004 0 0 1-.02-.345c0-1.465 1.07-2.656 2.383-2.656 1.314 0 2.383 1.191 2.383 2.656 0 1.371-.959 2.534-2.183 2.647zm6.793-2.681a.781.781 0 1 0-1.562 0 .781.781 0 0 0 1.562 0zm-12.422 0a.781.781 0 1 0-1.562 0 .781.781 0 0 0 1.562 0zm1.407 5.82H2.78a.781.781 0 1 0 0 1.563h5.196a.781.781 0 1 0 0-1.563zM9.148 13H2.781a.781.781 0 1 0 0 1.563h6.367a.781.781 0 1 0 0-1.563zm-2.343 6.25H2.78a.781.781 0 1 0 0 1.563h4.024a.781.781 0 1 0 0-1.563z"/>
    </symbol>

    <symbol id='triangle' viewBox='-0.5 -0.5 18 18'>
      <path d="M9.9,0.6l6.5,6.5c0.8,0.8,0.8,2,0,2.8c-0.4,0.4-0.9,0.6-1.4,0.6l-13,0c-1.1,0-2-0.9-2-2c0-0.5,0.2-1,0.6-1.4l6.5-6.5C7.9-0.2,9.1-0.2,9.9,0.6z"/>
    </symbol>

    <symbol id='date' viewBox='0 0 24 24'>
      <path
        d="M21.145 5.279a1.371 1.371 0 0 0-1.004-.424h-1.427v-1.07c0-.491-.175-.911-.524-1.26-.35-.35-.77-.525-1.26-.525h-.714c-.491 0-.911.175-1.26.524-.35.35-.525.77-.525 1.26v1.071H10.15v-1.07c0-.491-.175-.911-.525-1.26-.349-.35-.77-.525-1.26-.525H7.65c-.49 0-.91.175-1.26.524-.35.35-.524.77-.524 1.26v1.071H4.438c-.386 0-.72.141-1.003.424a1.372 1.372 0 0 0-.424 1.004v14.275c0 .387.141.721.424 1.004.282.282.617.424 1.003.424h15.703c.387 0 .722-.142 1.004-.424.282-.283.424-.617.424-1.004V6.283c0-.387-.142-.721-.424-1.004zm-5.286-1.494c0-.105.033-.19.1-.257a.348.348 0 0 1 .257-.1h.713c.104 0 .19.033.257.1s.1.153.1.257v3.211c0 .105-.033.19-.1.257a.348.348 0 0 1-.257.1h-.713a.347.347 0 0 1-.257-.1.347.347 0 0 1-.1-.257V3.785zm-8.565 0c0-.105.033-.19.1-.257a.348.348 0 0 1 .256-.1h.714c.104 0 .19.033.257.1.066.067.1.153.1.257v3.211c0 .105-.033.19-.1.257a.348.348 0 0 1-.257.1H7.65a.347.347 0 0 1-.256-.1.348.348 0 0 1-.1-.257V3.785zM20.14 20.558H4.438V9.138h15.703v11.42z"/>
    </symbol>

  </defs>
</svg>
