<?xml version="1.0" encoding="UTF-8"?>
<svg version="1.1" xmlns="http://www.w3.org/2000/svg"
     xmlns:xlink="http://www.w3.org/1999/xlink">
  <defs>

    <symbol id='tracker' viewBox='0 0 24 24'>
      <path
        d="M12 9.083A2.92 2.92 0 0 0 9.083 12 2.92 2.92 0 0 0 12 14.917 2.92 2.92 0 0 0 14.917 12 2.92 2.92 0 0 0 12 9.083zm9.167 2.084a.834.834 0 0 1 0 1.666H19.45a7.51 7.51 0 0 1-6.618 6.618v1.716a.834.834 0 0 1-1.666 0V19.45a7.51 7.51 0 0 1-6.618-6.618H2.833a.834.834 0 0 1 0-1.666H4.55a7.51 7.51 0 0 1 6.618-6.618V2.833a.834.834 0 0 1 1.666 0V4.55a7.51 7.51 0 0 1 6.618 6.618h1.716zM12 13.25c-.69 0-1.25-.56-1.25-1.25s.56-1.25 1.25-1.25 1.25.56 1.25 1.25-.56 1.25-1.25 1.25zm0 4.583A5.84 5.84 0 0 0 17.833 12 5.84 5.84 0 0 0 12 6.167 5.84 5.84 0 0 0 6.167 12 5.84 5.84 0 0 0 12 17.833z"/>
    </symbol>

    <symbol id='arrow-down' viewBox='0 0 24 24'>
      <path
        d="M12 16.5c-.269 0-.538-.102-.743-.307l-6.45-6.45a1.05 1.05 0 1 1 1.486-1.485L12 13.965l5.707-5.707a1.05 1.05 0 0 1 1.485 1.485l-6.45 6.45A1.047 1.047 0 0 1 12 16.5z"/>
    </symbol>

    <symbol id='check' viewBox='0 0 24 24'>
      <path
        d="M14.977 9.117a1.08 1.08 0 0 1 1.545.005 1.1 1.1 0 0 1-.024 1.556l-4.782 4.637a1 1 0 0 1-1.402-.01l-2.548-2.54-.001-.002a.94.94 0 1 1 1.329-1.327l1.816 1.824 4.067-4.143zM12 2c5.523 0 10 4.477 10 10s-4.477 10-10 10S2 17.523 2 12 6.477 2 12 2zm0 18.19A8.19 8.19 0 0 0 20.19 12 8.2 8.2 0 0 0 12 3.81a8.19 8.19 0 0 0 0 16.38z"/>
    </symbol>

    <symbol id='warning' viewBox='0 0 24 24'>
      <path
        d="M12 15.848c.563 0 1.028.464 1.003 1.052.025.535-.465 1.003-1.003 1.003-.56 0-1.028-.468-1.028-1.027 0-.56.469-1.028 1.028-1.028zm9.513 3.642a3.54 3.54 0 0 1-3.091 1.793H5.562a3.518 3.518 0 0 1-3.072-1.764 3.538 3.538 0 0 1-.012-3.572L8.924 4.784A3.51 3.51 0 0 1 12.004 3c1.29 0 2.442.666 3.08 1.788l6.438 11.15a3.51 3.51 0 0 1-.009 3.552zm-1.398-.805a1.92 1.92 0 0 0 .013-1.937L13.685 5.59a1.916 1.916 0 0 0-1.681-.978c-.707 0-1.332.361-1.682.974L3.876 16.744a1.945 1.945 0 0 0 .004 1.961c.35.605.978.962 1.677.962h12.86c.708 0 1.34-.366 1.698-.982zm-8.37-10.053c.49-.115.978.12 1.188.58.07.165.095.33.095.514-.025.514-.07 1.028-.095 1.542-.045.793-.095 1.587-.14 2.38-.024.26-.024.494-.024.749a.769.769 0 0 1-.77.748.753.753 0 0 1-.768-.724l-.21-3.688c-.024-.324-.045-.653-.07-.978 0-.539.305-.983.794-1.123z"/>
    </symbol>

    <symbol id='eye' viewBox='0 0 24 24'>
      <path
        d="M12 6c-3.821 0-7.286 2.09-9.844 5.486a.792.792 0 0 0 0 .945c2.558 3.4 6.023 5.49 9.844 5.49 3.821 0 7.286-2.09 9.844-5.485a.792.792 0 0 0 0-.946C19.286 8.09 15.82 6 12 6zm.274 10.159a4.21 4.21 0 0 1-4.472-4.472 4.216 4.216 0 0 1 3.924-3.924 4.21 4.21 0 0 1 4.472 4.472 4.23 4.23 0 0 1-3.924 3.924zm-.127-1.94a2.261 2.261 0 0 1-2.405-2.405 2.275 2.275 0 0 1 2.115-2.116 2.261 2.261 0 0 1 2.405 2.406 2.275 2.275 0 0 1-2.115 2.115z"/>
    </symbol>

    <symbol id='thick' viewBox='0 0 24 24'>
      <path
        d="M8.727 15.84l-3.58-3.579a1.012 1.012 0 0 0-1.432 1.432l4.305 4.304a1 1 0 0 0 1.414 0l10.85-10.85a1.012 1.012 0 0 0-1.432-1.432L8.727 15.842z"/>
    </symbol>

    <symbol id='close' viewBox='0 0 24 24'>
      <path
        d="M18.266 7.11l-4.875 4.874 4.875 4.875a.994.994 0 0 1-1.406 1.406l-4.876-4.874-4.875 4.875a.994.994 0 0 1-1.406-1.406l4.875-4.876L5.703 7.11A.994.994 0 0 1 7.11 5.703l4.875 4.875 4.875-4.875a.994.994 0 0 1 1.406 1.406z"/>
    </symbol>

  </defs>
</svg>
