<svg version="1.1" xmlns="http://www.w3.org/2000/svg"
     xmlns:xlink="http://www.w3.org/1999/xlink">
  <defs>

    <symbol id="checked"  viewBox="0 0 12 8">
        <path  d="M9.617.415L4.393 5.736 2.06 3.394a1.206 1.206 0 0 0-1.707-.002A1.206 1.206 0 0 0 .354 5.1l3.471 3.462a1 1 0 0 0 1.402.01l6.344-6.151a1.413 1.413 0 0 0 .028-2.001A1.386 1.386 0 0 0 9.617.415z"/>
    </symbol>

    <symbol id='tracker' viewBox='0 0 24 24'>
      <path
        d="M12 9.083A2.92 2.92 0 0 0 9.083 12 2.92 2.92 0 0 0 12 14.917 2.92 2.92 0 0 0 14.917 12 2.92 2.92 0 0 0 12 9.083zm9.167 2.084a.834.834 0 0 1 0 1.666H19.45a7.51 7.51 0 0 1-6.618 6.618v1.716a.834.834 0 0 1-1.666 0V19.45a7.51 7.51 0 0 1-6.618-6.618H2.833a.834.834 0 0 1 0-1.666H4.55a7.51 7.51 0 0 1 6.618-6.618V2.833a.834.834 0 0 1 1.666 0V4.55a7.51 7.51 0 0 1 6.618 6.618h1.716zM12 13.25c-.69 0-1.25-.56-1.25-1.25s.56-1.25 1.25-1.25 1.25.56 1.25 1.25-.56 1.25-1.25 1.25zm0 4.583A5.84 5.84 0 0 0 17.833 12 5.84 5.84 0 0 0 12 6.167 5.84 5.84 0 0 0 6.167 12 5.84 5.84 0 0 0 12 17.833z"/>
    </symbol>

    <symbol id='arrow-down' viewBox='0 0 24 24'>
      <path
        d="M12 16.5c-.269 0-.538-.102-.743-.307l-6.45-6.45a1.05 1.05 0 1 1 1.486-1.485L12 13.965l5.707-5.707a1.05 1.05 0 0 1 1.485 1.485l-6.45 6.45A1.047 1.047 0 0 1 12 16.5z"/>
    </symbol>

    <symbol id='arrow-up' viewBox='0 0 24 24'>
      <path
        d="M12.743 7.808l6.45 6.45a1.05 1.05 0 1 1-1.486 1.485L12 10.036l-5.707 5.707a1.05 1.05 0 0 1-1.485-1.486l6.45-6.45a1.047 1.047 0 0 1 1.485 0z"/>
    </symbol>

    <symbol id='arrow-right' viewBox='0 0 24 24'>
      <path
        d="M16.74 12.74l-6.447 6.447a1.05 1.05 0 1 1-1.486-1.485l5.706-5.705-5.705-5.704a1.05 1.05 0 0 1 1.485-1.485l6.447 6.447a1.046 1.046 0 0 1 0 1.485z"/>
    </symbol>

    <symbol id='arrow-left' viewBox='0 0 24 24'>
      <path
        d="M7.5 11.997c0-.268.103-.537.307-.742l6.448-6.447a1.05 1.05 0 1 1 1.485 1.485l-5.705 5.704 5.705 5.705a1.05 1.05 0 0 1-1.485 1.485L7.807 12.74a1.048 1.048 0 0 1-.307-.743z"/>
    </symbol>

    <symbol id='check' viewBox='0 0 24 24'>
      <path
        d="M14.977 9.117a1.08 1.08 0 0 1 1.545.005 1.1 1.1 0 0 1-.024 1.556l-4.782 4.637a1 1 0 0 1-1.402-.01l-2.548-2.54-.001-.002a.94.94 0 1 1 1.329-1.327l1.816 1.824 4.067-4.143zM12 2c5.523 0 10 4.477 10 10s-4.477 10-10 10S2 17.523 2 12 6.477 2 12 2zm0 18.19A8.19 8.19 0 0 0 20.19 12 8.2 8.2 0 0 0 12 3.81a8.19 8.19 0 0 0 0 16.38z"/>
    </symbol>

    <symbol id='warning' viewBox='0 0 24 24'>
      <path
        d="M12 15.848c.563 0 1.028.464 1.003 1.052.025.535-.465 1.003-1.003 1.003-.56 0-1.028-.468-1.028-1.027 0-.56.469-1.028 1.028-1.028zm9.513 3.642a3.54 3.54 0 0 1-3.091 1.793H5.562a3.518 3.518 0 0 1-3.072-1.764 3.538 3.538 0 0 1-.012-3.572L8.924 4.784A3.51 3.51 0 0 1 12.004 3c1.29 0 2.442.666 3.08 1.788l6.438 11.15a3.51 3.51 0 0 1-.009 3.552zm-1.398-.805a1.92 1.92 0 0 0 .013-1.937L13.685 5.59a1.916 1.916 0 0 0-1.681-.978c-.707 0-1.332.361-1.682.974L3.876 16.744a1.945 1.945 0 0 0 .004 1.961c.35.605.978.962 1.677.962h12.86c.708 0 1.34-.366 1.698-.982zm-8.37-10.053c.49-.115.978.12 1.188.58.07.165.095.33.095.514-.025.514-.07 1.028-.095 1.542-.045.793-.095 1.587-.14 2.38-.024.26-.024.494-.024.749a.769.769 0 0 1-.77.748.753.753 0 0 1-.768-.724l-.21-3.688c-.024-.324-.045-.653-.07-.978 0-.539.305-.983.794-1.123z"/>
    </symbol>

    <symbol id='eye' viewBox='0 0 24 24'>
      <path
        d="M12 6c-3.821 0-7.286 2.09-9.844 5.486a.792.792 0 0 0 0 .945c2.558 3.4 6.023 5.49 9.844 5.49 3.821 0 7.286-2.09 9.844-5.485a.792.792 0 0 0 0-.946C19.286 8.09 15.82 6 12 6zm.274 10.159a4.21 4.21 0 0 1-4.472-4.472 4.216 4.216 0 0 1 3.924-3.924 4.21 4.21 0 0 1 4.472 4.472 4.23 4.23 0 0 1-3.924 3.924zm-.127-1.94a2.261 2.261 0 0 1-2.405-2.405 2.275 2.275 0 0 1 2.115-2.116 2.261 2.261 0 0 1 2.405 2.406 2.275 2.275 0 0 1-2.115 2.115z"/>
    </symbol>

    <symbol id='thick' viewBox='0 0 24 24'>
      <path
        d="M8.727 15.84l-3.58-3.579a1.012 1.012 0 0 0-1.432 1.432l4.305 4.304a1 1 0 0 0 1.414 0l10.85-10.85a1.012 1.012 0 0 0-1.432-1.432L8.727 15.842z"/>
    </symbol>

    <symbol id='cross' viewBox='0 0 24 24'>
      <path
        d="M18.266 7.11l-4.875 4.874 4.875 4.875a.994.994 0 0 1-1.406 1.406l-4.876-4.874-4.875 4.875a.994.994 0 0 1-1.406-1.406l4.875-4.876L5.703 7.11A.994.994 0 0 1 7.11 5.703l4.875 4.875 4.875-4.875a.994.994 0 0 1 1.406 1.406z"/>
    </symbol>

    <symbol id='cross-circle' viewBox='0 0 24 24'>
      <path
        d="M12 2c5.523 0 10 4.477 10 10s-4.477 10-10 10S2 17.523 2 12 6.477 2 12 2zm0 18.19A8.19 8.19 0 0 0 20.19 12 8.2 8.2 0 0 0 12 3.81a8.19 8.19 0 0 0 0 16.38zm2.615-11.964a.82.82 0 1 1 1.16 1.159L13.158 12l2.615 2.615a.82.82 0 0 1-1.159 1.16L12 13.158l-2.615 2.615a.82.82 0 0 1-1.16-1.159L10.842 12 8.226 9.385a.82.82 0 1 1 1.159-1.16L12 10.842l2.615-2.615z"/>
    </symbol>

    <symbol id='menu' viewBox='0 0 24 24'>
      <path
        d="M4 7h16v1.792H4V7zm0 4.458h16v1.75H4v-1.75zm0 4.417h16v1.792H4v-1.792z"/>
    </symbol>

    <symbol id='transaction' viewBox='0 0 24 24'>
      <path
        d="M22 6.125v4.531a.781.781 0 1 1-1.563 0V6.125c0-.862-.7-1.563-1.562-1.563H5.125c-.862 0-1.563.701-1.563 1.563v4.531a.781.781 0 1 1-1.562 0V6.125A3.128 3.128 0 0 1 5.125 3h13.75A3.128 3.128 0 0 1 22 6.125zm-.781 7.656a.781.781 0 0 0-.782.781c0 .862-.7 1.563-1.562 1.563h-7.773a.781.781 0 1 0 0 1.563h7.773A3.128 3.128 0 0 0 22 14.563a.781.781 0 0 0-.781-.782zm-9.02-.795a.781.781 0 1 0 .145 1.556c.991-.092 1.906-.577 2.577-1.366a4.377 4.377 0 0 0 1.024-2.837c0-2.326-1.77-4.219-3.945-4.219S8.055 8.013 8.055 10.34c0 .175.01.352.03.525a.781.781 0 0 0 1.552-.18 3.004 3.004 0 0 1-.02-.345c0-1.465 1.07-2.656 2.383-2.656 1.314 0 2.383 1.191 2.383 2.656 0 1.371-.959 2.534-2.183 2.647zm6.793-2.681a.781.781 0 1 0-1.562 0 .781.781 0 0 0 1.562 0zm-12.422 0a.781.781 0 1 0-1.562 0 .781.781 0 0 0 1.562 0zm1.407 5.82H2.78a.781.781 0 1 0 0 1.563h5.196a.781.781 0 1 0 0-1.563zM9.148 13H2.781a.781.781 0 1 0 0 1.563h6.367a.781.781 0 1 0 0-1.563zm-2.343 6.25H2.78a.781.781 0 1 0 0 1.563h4.024a.781.781 0 1 0 0-1.563z"/>
    </symbol>

    <symbol id='triangle' viewBox='-0.5 -0.5 18 18'>
      <path d="M9.9,0.6l6.5,6.5c0.8,0.8,0.8,2,0,2.8c-0.4,0.4-0.9,0.6-1.4,0.6l-13,0c-1.1,0-2-0.9-2-2c0-0.5,0.2-1,0.6-1.4l6.5-6.5C7.9-0.2,9.1-0.2,9.9,0.6z"/>
    </symbol>

    <symbol id='date' viewBox='0 0 24 24'>
      <path
        d="M21.145 5.279a1.371 1.371 0 0 0-1.004-.424h-1.427v-1.07c0-.491-.175-.911-.524-1.26-.35-.35-.77-.525-1.26-.525h-.714c-.491 0-.911.175-1.26.524-.35.35-.525.77-.525 1.26v1.071H10.15v-1.07c0-.491-.175-.911-.525-1.26-.349-.35-.77-.525-1.26-.525H7.65c-.49 0-.91.175-1.26.524-.35.35-.524.77-.524 1.26v1.071H4.438c-.386 0-.72.141-1.003.424a1.372 1.372 0 0 0-.424 1.004v14.275c0 .387.141.721.424 1.004.282.282.617.424 1.003.424h15.703c.387 0 .722-.142 1.004-.424.282-.283.424-.617.424-1.004V6.283c0-.387-.142-.721-.424-1.004zm-5.286-1.494c0-.105.033-.19.1-.257a.348.348 0 0 1 .257-.1h.713c.104 0 .19.033.257.1s.1.153.1.257v3.211c0 .105-.033.19-.1.257a.348.348 0 0 1-.257.1h-.713a.347.347 0 0 1-.257-.1.347.347 0 0 1-.1-.257V3.785zm-8.565 0c0-.105.033-.19.1-.257a.348.348 0 0 1 .256-.1h.714c.104 0 .19.033.257.1.066.067.1.153.1.257v3.211c0 .105-.033.19-.1.257a.348.348 0 0 1-.257.1H7.65a.347.347 0 0 1-.256-.1.348.348 0 0 1-.1-.257V3.785zM20.14 20.558H4.438V9.138h15.703v11.42z"/>
    </symbol>

    <symbol id='facebook' viewBox='0 0 24 24'>
      <path
        d="M16.0375587,4 L16.0375587,7.19248826 L14.4225352,7.19248826 C14.1471035,7.21752751 13.9467925,7.3489816 13.8215962,7.58685446 C13.6964,7.82472732 13.6338028,8.09389521 13.6338028,8.3943662 L13.6338028,10.3849765 L16.0375587,10.3849765 L16.0375587,13.6150235 L13.6338028,13.6150235 L13.6338028,20 L10.4037559,20 L10.4037559,13.6150235 L8,13.6150235 L8,10.3849765 L10.4037559,10.3849765 L10.4037559,7.19248826 C10.4287951,6.29107531 10.741781,5.53990911 11.342723,4.93896714 C11.943665,4.33802516 12.7073506,4.02503925 13.6338028,4 L16.0375587,4 Z" />
    </symbol>

    <symbol id='instagram' viewBox='0 0 24 24'>
      <path d="M17.6,8.15 C17.6,8.346 17.446,8.5 17.25,8.5 L15.85,8.5 C15.654,8.5 15.5,8.346 15.5,8.15 L15.5,6.75 C15.5,6.554 15.654,6.4 15.85,6.4 L17.25,6.4 C17.446,6.4 17.6,6.554 17.6,6.75 L17.6,8.15 Z M6.75,17.6 C6.554,17.6 6.4,17.446 6.4,17.25 L6.4,11.3 L7.863,11.3 C7.821,11.524 7.8,11.762 7.8,12 C7.8,14.317 9.683,16.2 12,16.2 C14.317,16.2 16.2,14.317 16.2,12 C16.2,11.762 16.172,11.524 16.137,11.3 L17.6,11.3 L17.6,17.25 C17.6,17.446 17.446,17.6 17.25,17.6 L6.75,17.6 Z M12,9.2 C13.547,9.2 14.8,10.453 14.8,12 C14.8,13.547 13.547,14.8 12,14.8 C10.453,14.8 9.2,13.547 9.2,12 C9.2,10.453 10.453,9.2 12,9.2 L12,9.2 Z M17.6,5 L6.4,5 C5.623,5 5,5.623 5,6.4 L5,17.6 C5,18.37 5.63,19 6.4,19 L17.6,19 C18.37,19 19,18.37 19,17.6 L19,6.4 C19,5.623 18.37,5 17.6,5 Z" />
    </symbol>

    <symbol id='linkedin' viewBox='0 0 24 24'>
      <path d="M20,20 L16.6796875,20 L16.6796875,14.375 C16.6536457,13.9322895 16.4518248,13.5546891 16.0742188,13.2421875 C15.6966127,12.9296859 15.2734398,12.7734375 14.8046875,12.7734375 C14.3359352,12.7734375 13.9778658,12.9296859 13.7304688,13.2421875 C13.4830717,13.5546891 13.3463543,13.9322895 13.3203125,14.375 L13.3203125,20 L10,20 L10,10 L13.3203125,10 L13.3203125,11.6796875 C13.6328141,11.2109352 14.075518,10.8463555 14.6484375,10.5859375 C15.221357,10.3255195 15.7552059,10.1953125 16.25,10.1953125 C17.3177137,10.2213543 18.2031215,10.5924443 18.90625,11.3085938 C19.6093785,12.0247432 19.9739582,12.9036406 20,13.9453125 L20,20 Z M8.3203125,20 L5,20 L5,10 L8.3203125,10 L8.3203125,20 Z M6.6796875,5 C7.14843984,5 7.53906094,5.16275879 7.8515625,5.48828125 C8.16406406,5.81380371 8.3203125,6.21093516 8.3203125,6.6796875 C8.3203125,7.14843984 8.16406406,7.53906094 7.8515625,7.8515625 C7.53906094,8.16406406 7.14843984,8.3203125 6.6796875,8.3203125 C6.21093516,8.3203125 5.81380371,8.16406406 5.48828125,7.8515625 C5.16275879,7.53906094 5,7.14843984 5,6.6796875 C5,6.21093516 5.16275879,5.81380371 5.48828125,5.48828125 C5.81380371,5.16275879 6.21093516,5 6.6796875,5 Z" />
    </symbol>

    <symbol id='twitter' viewBox='0 0 24 24'>
      <path d="M20,6.52963671 C19.4110899,6.79732314 18.7762906,6.97323136 18.1185468,7.05736138 C18.791587,6.65200765 19.3116635,6.00956023 19.5564054,5.23709369 C18.9216061,5.61950287 18.2179732,5.88718929 17.4760994,6.04015296 C16.8718929,5.38240918 16.0229446,5 15.0592734,5 C13.2619503,5 11.793499,6.46845124 11.793499,8.28107075 C11.793499,8.54110899 11.8240918,8.79349904 11.8776291,9.03059273 C9.15487572,8.89292543 6.73040153,7.58508604 5.1166348,5.6042065 C4.83365201,6.08604207 4.67304015,6.65200765 4.67304015,7.24856597 C4.67304015,8.38814532 5.24665392,9.39770554 6.13384321,9.97131931 C5.59082218,9.97131931 5.08604207,9.81835564 4.64244742,9.58891013 C4.64244742,9.58891013 4.64244742,9.58891013 4.64244742,9.61185468 C4.64244742,11.2026769 5.77437859,12.5334608 7.27342256,12.83174 C6.99808795,12.9082218 6.70745698,12.9464627 6.40917782,12.9464627 C6.20267686,12.9464627 5.99617591,12.9235182 5.79732314,12.8852772 C6.21032505,14.1778203 7.41108987,15.1414914 8.85659656,15.1644359 C7.73996176,16.0516252 6.3250478,16.5717017 4.78011472,16.5717017 C4.52007648,16.5717017 4.26003824,16.5564054 4,16.5258126 C5.45315488,17.458891 7.18164436,18.001912 9.03250478,18.001912 C15.0592734,18.001912 18.3709369,13 18.3709369,8.66347992 C18.3709369,8.51816444 18.3709369,8.38049713 18.3632887,8.23518164 C19.0057361,7.77629063 19.5564054,7.19502868 20,6.52963671 Z" />
    </symbol>

    <symbol id='sorting' viewBox='0 0 24 24'>
      <path d="M4 12l1.41 1.41L11 7.83V20h2V7.83l5.58 5.59L20 12l-8-8z" />
    </symbol>

    <symbol id='more' viewBox='0 0 24 24'>
      <path d="M12 8c1.1 0 2-.9 2-2s-.9-2-2-2-2 .9-2 2 .9 2 2 2zm0 2c-1.1 0-2 .9-2 2s.9 2 2 2 2-.9 2-2-.9-2-2-2zm0 6c-1.1 0-2 .9-2 2s.9 2 2 2 2-.9 2-2-.9-2-2-2z" />
    </symbol>

    <symbol id='profile' viewBox='0 0 24 24'>
      <path
        d="M11.657 11.781c-2.224 0-4.026-2.19-4.026-4.89C7.63 4.19 8.223 2 11.657 2c3.435 0 4.027 2.19 4.027 4.89 0 2.702-1.803 4.891-4.027 4.891zm7.596 7.27c.005.301.008.353.009.326v.366S18.142 22 11.657 22s-7.604-2.257-7.604-2.257l-.001-.494c.001.043.004.024.011-.35.086-4.582.738-5.903 5.39-6.742 0 0 .661.843 2.204.843 1.543 0 2.205-.843 2.205-.843 4.702.848 5.317 2.189 5.391 6.894z" />
    </symbol>

    <symbol id='settings' viewBox='0 0 24 24'>
      <path d="M19.342 9.429l-.095-.034-.371-.886.04-.092c1.125-2.55 1.047-2.627.86-2.812l-1.5-1.464a.4.4 0 0 0-.262-.104c-.084 0-.34 0-2.556 1.004l-.089.04-.914-.368-.037-.091c-1.042-2.58-1.15-2.58-1.408-2.58h-2.12c-.258 0-.376 0-1.342 2.584l-.036.094-.91.371-.087-.036c-1.5-.632-2.376-.953-2.604-.953-.093 0-.201.042-.263.102L4.146 5.672c-.19.188-.27.267.915 2.765l.043.093-.372.885-.09.035C2 10.471 2 10.57 2 10.836v2.077c0 .267 0 .377 2.646 1.326l.095.033.372.883-.04.09c-1.125 2.553-1.054 2.622-.862 2.812l1.498 1.466c.063.06.172.104.264.104.084 0 .34 0 2.557-1.004l.089-.041.915.37.036.091c1.042 2.58 1.15 2.58 1.409 2.58h2.12c.266 0 .376 0 1.344-2.587l.036-.094.91-.368.087.035c1.5.634 2.375.955 2.602.955.091 0 .2-.04.263-.103l1.505-1.471c.189-.189.268-.266-.918-2.762l-.044-.094.37-.881.09-.035c2.645-1.026 2.645-1.126 2.645-1.392V10.75c0-.266 0-.376-2.647-1.321zM11.994 15.2c-1.894 0-3.434-1.511-3.434-3.367 0-1.857 1.54-3.366 3.434-3.366 1.894 0 3.434 1.51 3.434 3.366s-1.54 3.367-3.434 3.367z" />
    </symbol>

    <symbol id='exit' viewBox='0 0 24 24'>
      <path d="M11.967 20.306a.83.83 0 1 1 0 1.66H4.492A2.495 2.495 0 0 1 2 19.477V4.524a2.495 2.495 0 0 1 2.492-2.492h7.475a.83.83 0 1 1 0 1.661H4.492a.83.83 0 0 0-.83.83v14.951c0 .459.371.83.83.83h7.475zm9.786-8.897a.83.83 0 0 1 0 1.182l-5.05 4.984a.826.826 0 0 1-1.175-.009.83.83 0 0 1 .009-1.174l3.608-3.561h-9.67a.83.83 0 1 1 0-1.662h9.67l-3.608-3.561a.83.83 0 1 1 1.166-1.183l5.05 4.984z" />
    </symbol>

    <symbol id='upload' viewBox='0 0 24 24'>
      <path
        d="M21.49 15.068a.51.51 0 0 1 .51.51v1.945a3.058 3.058 0 0 1-3.055 3.054H5.055A3.058 3.058 0 0 1 2 17.523v-1.946a.51.51 0 1 1 1.018 0v1.946c0 1.123.914 2.036 2.037 2.036h13.89a2.039 2.039 0 0 0 2.037-2.036v-1.946a.51.51 0 0 1 .509-.509zm-3.09 2.006a.51.51 0 1 1 0 1.018H5.6a.51.51 0 1 1 0-1.018h12.8zm-1.287-9.94a.51.51 0 0 1-.679.76L12.51 4.386v9.867a.51.51 0 1 1-1.018 0V4.387L7.566 7.893a.51.51 0 1 1-.679-.76l4.265-3.81c.24-.214.547-.493.848-.495.305 0 .605.279.848.496l4.265 3.81z" />
    </symbol>

    <symbol id='message' viewBox='0 0 24 24'>
      <path
        d="M19.017 4.373C20.94 5.928 22 8.008 22 10.23c0 2.121-.972 4.124-2.741 5.655l-3.606 5.369a.676.676 0 0 1-.561.299h-.016a.676.676 0 0 1-.562-.326L12.81 18.42c-.27.018-.541.027-.81.027-2.645 0-5.137-.838-7.018-2.36C3.059 14.533 2 12.453 2 10.23s1.059-4.302 2.982-5.857c1.88-1.521 4.373-2.36 7.018-2.36 2.644 0 5.136.839 7.017 2.36zM6.75 11.5a1.25 1.25 0 1 0 0-2.5 1.25 1.25 0 0 0 0 2.5zm10 0a1.25 1.25 0 1 0 0-2.5 1.25 1.25 0 0 0 0 2.5zm-5 0a1.25 1.25 0 1 0 0-2.5 1.25 1.25 0 0 0 0 2.5z" />
    </symbol>

    <symbol id='bell' viewBox='0 0 24 24'>
      <path
        d="M12 22c1.1 0 2-.9 2-2h-4c0 1.1.9 2 2 2zm6.5-6v-5.5c0-3.1-2.1-5.6-5-6.3v-.7c0-.8-.7-1.5-1.5-1.5s-1.5.7-1.5 1.5v.7c-2.9.7-5 3.2-5 6.3V16l-2 2v1h17v-1l-2-2z" />
    </symbol>

    <symbol id='pencil' viewBox='0 0 24 24'>
      <path
        d="M13.95 6.67l3.254 3.27-8.239 8.28-3.253-3.27 8.237-8.28zm5.724-.789l-1.452-1.458a1.435 1.435 0 0 0-2.034 0l-1.39 1.397 3.254 3.27 1.622-1.63a1.119 1.119 0 0 0 0-1.579zM4.009 19.546a.371.371 0 0 0 .448.443l3.627-.883-3.253-3.271-.822 3.711z" />
    </symbol>

    <symbol id='history' viewBox='0 0 24 24'>
      <path
        d="M12.916 3c5.009 0 9.083 4.074 9.084 9.084 0 5.008-4.075 9.083-9.084 9.083a.727.727 0 1 1 0-1.456c4.206 0 7.628-3.422 7.628-7.627 0-4.207-3.422-7.629-7.628-7.629-4.205 0-7.628 3.423-7.628 7.632-.006.182-.003.474.025.847.038.512.114 1.02.235 1.5l.47-1.163a.728.728 0 0 1 1.349.545l-1.128 2.793-.024.045-.002.003-.004.005c-.003.013-.003.014-.016.041l-.025.034-.002.001-.004.005a.666.666 0 0 1-.129.145.718.718 0 0 1-.346.161c-.023.007-.023.007-.052.012h-.041l-.03.003c-.032-.002-.032-.002-.052-.006l-.015-.002-.01-.001-.058-.006-.028-.006c-.022-.005-.022-.005-.041-.012l-.028-.01-.006-.001a.706.706 0 0 1-.103-.043l-.026-.012-2.836-1.653a.728.728 0 0 1 .733-1.257l1.007.587c-.236-.997-.297-1.968-.268-2.587C3.833 7.07 7.912 3 12.916 3zm-.283 10.824l-3.645-1.526a.728.728 0 0 1 .563-1.342l3.194 1.337 3.58-3.58a.727.727 0 1 1 1.03 1.03l-3.925 3.924c-.025.021-.025.021-.04.029-.005.003-.005.003.003-.003a.725.725 0 0 1-.166.11l-.012.006-.005.003c-.02.01-.02.01-.048.021a.715.715 0 0 1-.247.048c-.033-.003-.033-.003-.048-.008a.732.732 0 0 1-.234-.049z" />
    </symbol>

    <symbol id='coins' viewBox='0 0 24 24'>
      <path
        d="M8.232 13.28C5.342 13.28 3 12.216 3 10.905v-.514c0-1.31 2.342-2.373 5.232-2.373.506 0 .995.032 1.458.093v5.074c-.463.06-.952.093-1.458.093zm0 2.648C5.342 15.928 3 14.866 3 13.555v-.514c0-.167.038-.33.11-.486.495 1.077 2.6 1.887 5.122 1.887.506 0 .995-.033 1.458-.094v1.487c-.463.06-.952.093-1.458.093zm1.458 1.185v.514c0 .288.066.566.195.83-.52.078-1.075.12-1.653.12-2.89 0-5.232-1.062-5.232-2.372v-.515c0-.167.038-.33.11-.486.495 1.077 2.6 1.887 5.122 1.887.506 0 .995-.033 1.458-.094v.116zM15.775 4c2.89 0 5.232 1.062 5.232 2.373v.514c0 1.311-2.342 2.373-5.232 2.373s-5.232-1.062-5.232-2.373v-.514c0-1.31 2.343-2.373 5.232-2.373zm0 6.423c2.522 0 4.627-.81 5.122-1.887.072.157.11.32.11.486v.515c0 1.31-2.342 2.372-5.232 2.372s-5.232-1.062-5.232-2.372v-.515c0-.167.038-.33.11-.486.495 1.077 2.6 1.887 5.122 1.887zm0 2.65c2.522 0 4.627-.81 5.122-1.888.072.157.11.32.11.486v.515c0 1.31-2.342 2.373-5.232 2.373s-5.232-1.063-5.232-2.373v-.515c0-.166.038-.329.11-.486.495 1.078 2.6 1.887 5.122 1.887zm0 2.791c2.522 0 4.627-.81 5.122-1.887.072.157.11.32.11.486v.515c0 1.31-2.342 2.373-5.232 2.373s-5.232-1.062-5.232-2.373v-.515c0-.166.038-.329.11-.486.495 1.078 2.6 1.887 5.122 1.887zm0 2.65c2.522 0 4.627-.81 5.122-1.887.072.156.11.319.11.485v.515c0 1.31-2.342 2.373-5.232 2.373s-5.232-1.062-5.232-2.373v-.514c0-.167.038-.33.11-.486.495 1.077 2.6 1.886 5.122 1.886z" />
    </symbol>

    <symbol id='loan' viewBox='0 0 24 24'>
      <path
        d="M22.883 15.582a1.83 1.83 0 0 1-.74 2.193l-9.032 5.651a.665.665 0 0 1-.614.048l-5.623-2.402-5.095.886A.665.665 0 0 1 1 21.302v-5.604c0-.322.231-.598.549-.655l7.715-1.374a.665.665 0 0 1 .509.118l3.54 2.588 7.403-1.913a1.821 1.821 0 0 1 2.167 1.12zM3.406 20.324v-4.26l-1.075.191v4.256l1.075-.187zm18.032-3.677a.496.496 0 0 0-.387-.898l-6.699 1.732c.068.16.116.328.142.505.079.54-.06 1.076-.39 1.51a2.01 2.01 0 0 1-2.759.434L9 18.294a.665.665 0 0 1 .761-1.092l2.346 1.637a.683.683 0 0 0 1.07-.661.68.68 0 0 0-.274-.454l-.116-.085a.418.418 0 0 1-.01-.008l-3.56-2.602-4.48.798v4.266l2.103-.365a.662.662 0 0 1 .375.043l5.485 2.343 8.738-5.467zM12 1a5.516 5.516 0 0 1 5.51 5.51A5.516 5.516 0 0 1 12 12.018a5.516 5.516 0 0 1-5.509-5.51A5.516 5.516 0 0 1 12.001 1zm0 9.688a4.183 4.183 0 0 0 4.179-4.179A4.183 4.183 0 0 0 12 2.331a4.183 4.183 0 0 0-4.178 4.178A4.183 4.183 0 0 0 12 10.688zm0-4.844c.83 0 1.504.675 1.504 1.504 0 .59-.342 1.102-.838 1.348v.211a.665.665 0 0 1-1.33 0v-.056h-.174a.665.665 0 0 1 0-1.33H12a.173.173 0 0 0 0-.346c-.829 0-1.503-.675-1.503-1.504 0-.59.342-1.102.838-1.348v-.212a.665.665 0 0 1 1.33 0v.056h.174a.665.665 0 0 1 0 1.331H12a.173.173 0 0 0 0 .346z" />
    </symbol>

    <symbol id='cards' viewBox='0 0 24 24'>
      <path
        d="M22.58 4.931c.582.123.956.7.833 1.281l-.26 1.678L7.296 4.535l.261-1.678c.123-.582.7-.957 1.28-.834L22.58 4.931zm-5.778 3.315l.236.85 5.518 1.168-.97 4.58c-.122.582-.698.957-1.28.834l-1.532-.324.409 1.473a1.094 1.094 0 0 1-.76 1.342L4.764 21.96a1.094 1.094 0 0 1-1.342-.759L1.04 12.62a1.094 1.094 0 0 1 .759-1.343l4.225-1.173.677-3.195 6.15 1.301 2.608-.724a1.094 1.094 0 0 1 1.343.76zm1.577 4.361c-.05.24.104.476.343.527l1.597.338c.239.05.476-.104.527-.343l.337-1.596a.446.446 0 0 0-.343-.527l-1.596-.338a.446.446 0 0 0-.527.342l-.338 1.597zm-16.343-.473a.204.204 0 0 0-.14.248l.466 1.678L16.41 10.16l-.353-1.272-.113-.406a.206.206 0 0 0-.248-.14l-.96.267-8.92 2.475-3.78 1.049zm16.29 4.93l-.532-1.918-.857-3.087L2.89 15.958l1.389 5.005a.206.206 0 0 0 .248.14l13.66-3.79a.196.196 0 0 0 .12-.096.198.198 0 0 0 .02-.152zm-11.593.343l.443 1.595a.446.446 0 0 1-.31.547l-1.595.443a.446.446 0 0 1-.547-.31l-.443-1.594a.446.446 0 0 1 .31-.548l1.595-.442a.446.446 0 0 1 .547.31z" />
    </symbol>

    <symbol id='wallet' viewBox='0 0 24 24'>
      <path
        d="M16.846 4.996v-.68H4.632c-.738 0-1.316.578-1.316 1.316 0 .737.578 1.315 1.316 1.315h12.214v-.636H4.654a.658.658 0 1 1 0-1.315h12.192zm-14.842.79A2.634 2.634 0 0 1 4.631 3l12.873-.001c.364 0 .658.295.658.658v3.29h1.58c.363 0 .657.294.657.657v3.706h.943c.363 0 .658.295.658.658v3.597a.658.658 0 0 1-.658.658h-.92v3.837a.658.658 0 0 1-.659.658H4.237A2.24 2.24 0 0 1 2 18.482V5.785h.004zM3.316 7.91v10.572c0 .517.404.922.92.922h14.87v-3.18h-2.742a.658.658 0 0 1-.658-.658v-3.597c0-.363.295-.658.658-.658h2.72V8.263H4.631c-.48 0-.929-.128-1.316-.353zm17.368 6.998v-2.28h-3.662v2.28h3.662z" />
    </symbol>

    <symbol id='dashboard' viewBox='0 0 24 24'>
      <path
        d="M14.208 8h4.459V5.333h-4.459V8zm-.889-4h6.237c.245 0 .444.199.444.444V8.89a.444.444 0 0 1-.444.444h-6.237a.444.444 0 0 1-.444-.444V4.444c0-.245.199-.444.444-.444zm.89 14.667h4.458v-6.209h-4.459v6.209zm-1.334.889v-7.987c0-.245.199-.444.444-.444h6.237c.245 0 .444.199.444.444v7.987a.444.444 0 0 1-.444.444h-6.237a.444.444 0 0 1-.444-.444zm-7.542-.89h4.459V16H5.333v2.667zM4 19.557V15.11c0-.245.199-.444.444-.444h6.237c.245 0 .444.199.444.444v4.445a.444.444 0 0 1-.444.444H4.444A.444.444 0 0 1 4 19.556zm0-7.125V4.444C4 4.2 4.199 4 4.444 4h6.237c.245 0 .444.199.444.444v7.987a.444.444 0 0 1-.444.444H4.444A.444.444 0 0 1 4 12.431z" />
    </symbol>

    <symbol id='plus' viewBox='0 0 24 24'>
      <path
        d="M19.132 10.884h-6.016V4.868C13.116 4.594 12.744 4 12 4c-.744 0-1.116.594-1.116.868v6.016H4.868C4.594 10.884 4 11.256 4 12c0 .744.594 1.116.868 1.116h6.016v6.016c0 .274.372.868 1.116.868.744 0 1.116-.594 1.116-.868v-6.016h6.016c.274 0 .868-.372.868-1.116 0-.744-.594-1.116-.868-1.116z" />
    </symbol>

    <symbol id='upload' viewBox='0 0 24 24'>
      <path d="M21.49 15.068a.51.51 0 0 1 .51.51v1.945a3.058 3.058 0 0 1-3.055 3.054H5.055A3.058 3.058 0 0 1 2 17.523v-1.946a.51.51 0 1 1 1.018 0v1.946c0 1.123.914 2.036 2.037 2.036h13.89a2.039 2.039 0 0 0 2.037-2.036v-1.946a.51.51 0 0 1 .509-.509zm-3.09 2.006a.51.51 0 1 1 0 1.018H5.6a.51.51 0 1 1 0-1.018h12.8zm-1.287-9.94a.51.51 0 0 1-.679.76L12.51 4.386v9.867a.51.51 0 1 1-1.018 0V4.387L7.566 7.893a.51.51 0 1 1-.679-.76l4.265-3.81c.24-.214.547-.493.848-.495.305 0 .605.279.848.496l4.265 3.81z"/>
    </symbol>

  </defs>
</svg>
