<svg xmlns="http://www.w3.org/2000/svg" width="40" height="24" viewBox="0 0 40 24">
    <g fill="none" fill-rule="evenodd">
        <path fill="#F1F1F1" d="M3 0h34a3 3 0 0 1 3 3v18a3 3 0 0 1-3 3H3a3 3 0 0 1-3-3V3a3 3 0 0 1 3-3z"/>
        <g fill-rule="nonzero">
            <path fill="#2B3894" d="M15.231 16.352l1.306-8.082h2.087l-1.306 8.082h-2.087zm9.656-7.883a5.168 5.168 0 0 0-1.87-.34c-2.062 0-3.515 1.097-3.527 2.668-.013 1.161 1.037 1.81 1.828 2.195.813.396 1.086.65 1.083 1.003-.006.541-.65.79-1.25.79-.835 0-1.278-.123-1.965-.424l-.268-.13-.292 1.81c.487.225 1.389.42 2.325.43 2.192 0 3.617-1.083 3.634-2.76.007-.92-.549-1.62-1.753-2.196-.73-.374-1.177-.623-1.172-1.002 0-.336.378-.695 1.196-.695a3.667 3.667 0 0 1 1.561.31l.188.093.282-1.752zm5.353-.19h-1.612c-.5 0-.875.143-1.094.67l-3.099 7.406h2.192s.357-.997.439-1.215l2.672.004c.063.282.254 1.21.254 1.21h1.937L30.24 8.28zm-16.76-.002l-2.042 5.51-.218-1.12c-.381-1.29-1.566-2.69-2.891-3.39l1.869 7.068 2.208-.002 3.286-8.066h-2.211zm14.186 5.21c.173-.465.831-2.26.831-2.26-.012.022.172-.467.278-.77l.14.697.483 2.333h-1.732z"/>
            <path fill="#F79510" d="M9.542 8.272H6.177l-.027.167c2.618.67 4.35 2.285 5.07 4.228l-.732-3.714c-.126-.512-.492-.663-.946-.681"/>
        </g>
    </g>
</svg>
